<?xml version="1.0" encoding="UTF-8" standalone="no"?>
<!-- Generated by graphviz version 2.26.3 (20100126.1600)
 -->

<!-- Title: _anonymous_0 Pages: 1 -->

<svg
   xmlns:dc="http://purl.org/dc/elements/1.1/"
   xmlns:cc="http://creativecommons.org/ns#"
   xmlns:rdf="http://www.w3.org/1999/02/22-rdf-syntax-ns#"
   xmlns:svg="http://www.w3.org/2000/svg"
   xmlns="http://www.w3.org/2000/svg"
   xmlns:xlink="http://www.w3.org/1999/xlink"
   xmlns:sodipodi="http://sodipodi.sourceforge.net/DTD/sodipodi-0.dtd"
   xmlns:inkscape="http://www.inkscape.org/namespaces/inkscape"
   width="1414.8251"
   height="377.72531"
   viewBox="0 0 1131.8601 302.18024"
   id="svg2985"
   version="1.1"
   inkscape:version="0.48.4 r9939"
   sodipodi:docname="coinsgraph.svg">
  <metadata
     id="metadata3315">
    <rdf:RDF>
      <cc:Work
         rdf:about="">
        <dc:format>image/svg+xml</dc:format>
        <dc:type
           rdf:resource="http://purl.org/dc/dcmitype/StillImage" />
        <dc:title></dc:title>
      </cc:Work>
    </rdf:RDF>
  </metadata>
  <defs
     id="defs3313">
    <marker
       inkscape:stockid="Arrow1Lend"
       orient="auto"
       refY="0"
       refX="0"
       id="Arrow1Lend"
       style="overflow:visible">
      <path
         id="path5012"
         d="M 0,0 5,-5 -12.5,0 5,5 0,0 z"
         style="fill-rule:evenodd;stroke:#000000;stroke-width:1pt"
         transform="matrix(-0.8,0,0,-0.8,-10,0)"
         inkscape:connector-curvature="0" />
    </marker>
    <marker
       inkscape:stockid="Arrow2Lstart"
       orient="auto"
       refY="0"
       refX="0"
       id="Arrow2Lstart"
       style="overflow:visible">
      <path
         id="path5027"
         style="fill-rule:evenodd;stroke-width:0.625;stroke-linejoin:round"
         d="M 8.7185878,4.0337352 -2.2072895,0.01601326 8.7185884,-4.0017078 c -1.7454984,2.3720609 -1.7354408,5.6174519 -6e-7,8.035443 z"
         transform="matrix(1.1,0,0,1.1,1.1,0)"
         inkscape:connector-curvature="0" />
    </marker>
    <marker
       inkscape:stockid="Arrow2Lstart"
       orient="auto"
       refY="0"
       refX="0"
       id="Arrow2Lstart-4"
       style="overflow:visible">
      <path
         inkscape:connector-curvature="0"
         id="path5027-8"
         style="fill-rule:evenodd;stroke-width:0.625;stroke-linejoin:round"
         d="M 8.7185878,4.0337352 -2.2072895,0.01601326 8.7185884,-4.0017078 c -1.7454984,2.3720609 -1.7354408,5.6174519 -6e-7,8.035443 z"
         transform="matrix(1.1,0,0,1.1,1.1,0)" />
    </marker>
    <marker
       inkscape:stockid="Arrow2Lstart"
       orient="auto"
       refY="0"
       refX="0"
       id="Arrow2Lstart-1"
       style="overflow:visible">
      <path
         inkscape:connector-curvature="0"
         id="path5027-5"
         style="fill-rule:evenodd;stroke-width:0.625;stroke-linejoin:round"
         d="M 8.7185878,4.0337352 -2.2072895,0.01601326 8.7185884,-4.0017078 c -1.7454984,2.3720609 -1.7354408,5.6174519 -6e-7,8.035443 z"
         transform="matrix(1.1,0,0,1.1,1.1,0)" />
    </marker>
    <marker
       inkscape:stockid="Arrow2Lstart"
       orient="auto"
       refY="0"
       refX="0"
       id="Arrow2Lstart-8"
       style="overflow:visible">
      <path
         inkscape:connector-curvature="0"
         id="path5027-88"
         style="fill-rule:evenodd;stroke-width:0.625;stroke-linejoin:round"
         d="M 8.7185878,4.0337352 -2.2072895,0.01601326 8.7185884,-4.0017078 c -1.7454984,2.3720609 -1.7354408,5.6174519 -6e-7,8.035443 z"
         transform="matrix(1.1,0,0,1.1,1.1,0)" />
    </marker>
    <marker
       inkscape:stockid="Arrow2Lstart"
       orient="auto"
       refY="0"
       refX="0"
       id="Arrow2Lstart-3"
       style="overflow:visible">
      <path
         inkscape:connector-curvature="0"
         id="path5027-81"
         style="fill-rule:evenodd;stroke-width:0.625;stroke-linejoin:round"
         d="M 8.7185878,4.0337352 -2.2072895,0.01601326 8.7185884,-4.0017078 c -1.7454984,2.3720609 -1.7354408,5.6174519 -6e-7,8.035443 z"
         transform="matrix(1.1,0,0,1.1,1.1,0)" />
    </marker>
    <marker
       inkscape:stockid="Arrow2Lstart"
       orient="auto"
       refY="0"
       refX="0"
       id="Arrow2Lstart-6"
       style="overflow:visible">
      <path
         inkscape:connector-curvature="0"
         id="path5027-86"
         style="fill-rule:evenodd;stroke-width:0.625;stroke-linejoin:round"
         d="M 8.7185878,4.0337352 -2.2072895,0.01601326 8.7185884,-4.0017078 c -1.7454984,2.3720609 -1.7354408,5.6174519 -6e-7,8.035443 z"
         transform="matrix(1.1,0,0,1.1,1.1,0)" />
    </marker>
    <marker
       inkscape:stockid="Arrow2Lstart"
       orient="auto"
       refY="0"
       refX="0"
       id="Arrow2Lstart-7"
       style="overflow:visible">
      <path
         inkscape:connector-curvature="0"
         id="path5027-0"
         style="fill-rule:evenodd;stroke-width:0.625;stroke-linejoin:round"
         d="M 8.7185878,4.0337352 -2.2072895,0.01601326 8.7185884,-4.0017078 c -1.7454984,2.3720609 -1.7354408,5.6174519 -6e-7,8.035443 z"
         transform="matrix(1.1,0,0,1.1,1.1,0)" />
    </marker>
    <marker
       inkscape:stockid="Arrow2Lstart"
       orient="auto"
       refY="0"
       refX="0"
       id="Arrow2Lstart-9"
       style="overflow:visible">
      <path
         inkscape:connector-curvature="0"
         id="path5027-2"
         style="fill-rule:evenodd;stroke-width:0.625;stroke-linejoin:round"
         d="M 8.7185878,4.0337352 -2.2072895,0.01601326 8.7185884,-4.0017078 c -1.7454984,2.3720609 -1.7354408,5.6174519 -6e-7,8.035443 z"
         transform="matrix(1.1,0,0,1.1,1.1,0)" />
    </marker>
    <marker
       inkscape:stockid="Arrow1Lend"
       orient="auto"
       refY="0"
       refX="0"
       id="Arrow1Lend-6"
       style="overflow:visible">
      <path
         inkscape:connector-curvature="0"
         id="path5012-7"
         d="M 0,0 5,-5 -12.5,0 5,5 0,0 z"
         style="fill-rule:evenodd;stroke:#000000;stroke-width:1pt"
         transform="matrix(-0.8,0,0,-0.8,-10,0)" />
    </marker>
    <marker
       inkscape:stockid="Arrow1Lend"
       orient="auto"
       refY="0"
       refX="0"
       id="Arrow1Lend-4"
       style="overflow:visible">
      <path
         id="path5012-6"
         d="M 0,0 5,-5 -12.5,0 5,5 0,0 z"
         style="fill-rule:evenodd;stroke:#000000;stroke-width:1pt"
         transform="matrix(-0.8,0,0,-0.8,-10,0)"
         inkscape:connector-curvature="0" />
    </marker>
    <marker
       inkscape:stockid="Arrow1Lend"
       orient="auto"
       refY="0"
       refX="0"
       id="Arrow1Lend-1"
       style="overflow:visible">
      <path
         id="path5012-5"
         d="M 0,0 5,-5 -12.5,0 5,5 0,0 z"
         style="fill-rule:evenodd;stroke:#000000;stroke-width:1pt"
         transform="matrix(-0.8,0,0,-0.8,-10,0)"
         inkscape:connector-curvature="0" />
    </marker>
    <marker
       inkscape:stockid="Arrow1Lend"
       orient="auto"
       refY="0"
       refX="0"
       id="Arrow1Lend-13"
       style="overflow:visible">
      <path
         id="path5012-0"
         d="M 0,0 5,-5 -12.5,0 5,5 0,0 z"
         style="fill-rule:evenodd;stroke:#000000;stroke-width:1pt"
         transform="matrix(-0.8,0,0,-0.8,-10,0)"
         inkscape:connector-curvature="0" />
    </marker>
  </defs>
  <sodipodi:namedview
     pagecolor="#ffffff"
     bordercolor="#666666"
     borderopacity="1"
     objecttolerance="10"
     gridtolerance="10"
     guidetolerance="10"
     inkscape:pageopacity="0"
     inkscape:pageshadow="2"
     inkscape:window-width="1366"
     inkscape:window-height="744"
     id="namedview3311"
     showgrid="false"
     fit-margin-top="0"
     fit-margin-left="0"
     fit-margin-right="0"
     fit-margin-bottom="0"
     inkscape:zoom="2.9"
     inkscape:cx="772.80755"
     inkscape:cy="260.46242"
     inkscape:window-x="0"
     inkscape:window-y="24"
     inkscape:window-maximized="1"
     inkscape:current-layer="svg2985" />
  <g
     class="node"
     id="node1"
     transform="translate(-460.46964,547.8366)">
    <title
       id="title2993">node0</title>
    <polygon
       style="fill:none;stroke:#666666"
       id="polygon2995"
       points="2342.5,-369.5 2342.5,-100.5 1065.5,-100.5 1065.5,-100.5 1065.5,-369.5 "
       transform="matrix(0.41544773,0,0,0.14958565,618.93568,-329.89755)" />
    <polygon
       style="fill:#cccccc;stroke:#808080"
       id="polygon2997"
       points="1067,-349 1067,-349 1067,-368 2342,-368 2342,-349 "
       transform="matrix(0.41360808,0,0,1.0184718,621.97528,-8.6719873)" />
    <text
       style="font-size:14px;text-anchor:start;font-family:DejaVu Sans"
       id="text2999"
       font-size="14.00"
       y="-369.89221"
       x="1297.4191">
      <tspan
         style="fill:#ff0000"
         id="tspan4283">Dogecoin</tspan>
    </text>
    <a
       id="a3001"
       xlink:title="&lt;TABLE&gt;"
       xlink:href="http://purl.org/net/bel-epa/ccs#Dd5bd8eaf-b432-440b-9502-3707aa57ff93"
       transform="translate(-3.5294118,-15.294118)">
      <polygon
         style="fill:#eeeeee;stroke:#eeeeee"
         id="polygon3003"
         points="1067,-349 2342,-349 2342,-335 1067,-335 1067,-335 "
         transform="matrix(0.41457534,0,0,1.4364749,624.53397,152.2156)" />
      <text
         style="font-size:10px;text-anchor:start;fill:#ff00ff;font-family:DejaVu Sans"
         id="text3005"
         font-size="10.00"
         y="-336.79791"
         x="1090.7115">
        <tspan
           style="font-size:12.80000019px;fill:#ff00ff"
           id="tspan4285">http://purl.org/net/bel-epa/ccs#Dd5bd8eaf-b432-440b-9502-3707aa57ff93</tspan>
      </text>
    </a>
  </g>
  <g
     class="node"
     id="node3"
     transform="translate(433.30957,39.999995)">
    <title
       id="title3060">node1</title>
    <polygon
       style="fill:none;stroke:#666666"
       id="polygon3062"
       points="7.5,-4.5 7.5,-4.5 7.5,-39.5 250.5,-39.5 250.5,-4.5 " />
    <polygon
       style="fill:#d9d9d9;fill-opacity:1;stroke:#808080"
       id="polygon3064"
       points="9,-19 9,-19 9,-38 250,-38 250,-19 " />
    <text
       style="font-size:14px;text-anchor:start;font-family:DejaVu Sans"
       id="text3066"
       font-size="14.00"
       y="-25.233299"
       x="76.5">
      <tspan
         style="fill:#ff9955"
         id="tspan4319">Cryptocurrency</tspan>
    </text>
    <a
       id="a3068"
       xlink:title="&lt;TABLE&gt;"
       xlink:href="http://purl.org/net/bel-epa/doacc#Cryptocurrency">
      <polygon
         style="fill:#eeeeee;stroke:#eeeeee"
         id="polygon3070"
         points="250,-19 250,-5 9,-5 9,-5 9,-19 "
         transform="matrix(0.99792775,0,0,0.88432771,-0.01164313,-0.54806744)" />
      <text
         style="font-size:10px;text-anchor:start;fill:#6666ff;font-family:DejaVu Sans"
         id="text3072"
         font-size="10.00"
         y="-9.0742683"
         x="9.0379906">
        <tspan
           style="font-size:9.60000038px;fill:#000000"
           id="tspan4313">http://purl.org/net/bel-epa/doacc#Cryptocurrency</tspan>
      </text>
    </a>
  </g>
  <g
     class="edge"
     id="edge2"
     transform="translate(34.912756,172.65986)">
    <title
       id="title3075">node0-&gt;node1</title>
    <text
       style="font-size:9.60000038px;font-style:normal;font-variant:normal;font-weight:normal;font-stretch:normal;text-align:start;line-height:125%;writing-mode:lr-tb;text-anchor:start;font-family:DejaVu Sans;-inkscape-font-specification:DejaVu Sans"
       id="text3081"
       font-size="14.00"
       y="-67.233299"
       x="502.5"
       sodipodi:linespacing="125%" />
    <text
       style="font-size:9.60000038px;font-style:normal;font-variant:normal;font-weight:normal;font-stretch:normal;text-align:start;line-height:125%;writing-mode:lr-tb;text-anchor:start;fill:#336633;font-family:DejaVu Sans;-inkscape-font-specification:DejaVu Sans"
       id="text3083"
       font-size="10.00"
       y="-66.833298"
       x="507.5"
       sodipodi:linespacing="125%">
      <tspan
         style="font-size:14.39999962px;font-style:normal;font-variant:normal;font-weight:normal;font-stretch:normal;text-align:start;line-height:125%;writing-mode:lr-tb;text-anchor:start;fill:#00d455;font-family:DejaVu Sans;-inkscape-font-specification:DejaVu Sans"
         id="tspan4355">rdf:type</tspan>
    </text>
    <text
       style="font-size:9.60000038px;font-style:normal;font-variant:normal;font-weight:normal;font-stretch:normal;text-align:start;line-height:125%;writing-mode:lr-tb;text-anchor:start;font-family:DejaVu Sans;-inkscape-font-specification:DejaVu Sans"
       id="text3085"
       font-size="14.00"
       y="-67.233299"
       x="544.5"
       sodipodi:linespacing="125%" />
  </g>
  <g
     class="node"
     id="node1-9"
     transform="translate(-1061.3844,549.16301)">
    <title
       id="title2993-5">node0</title>
    <polygon
       style="fill:none;stroke:#666666"
       id="polygon2995-7"
       points="2342.5,-100.5 1065.5,-100.5 1065.5,-100.5 1065.5,-369.5 2342.5,-369.5 "
       transform="matrix(0.41969641,0,0,0.14588617,614.40777,-331.26543)" />
    <polygon
       style="fill:#cccccc;stroke:#808080"
       id="polygon2997-5"
       points="1067,-349 1067,-368 2342,-368 2342,-349 1067,-349 "
       transform="matrix(0.41892226,0,0,1.0182567,616.3071,-8.7491067)" />
    <text
       style="font-size:14px;text-anchor:start;font-family:DejaVu Sans"
       id="text2999-9"
       font-size="14.00"
       y="-369.89221"
       x="1297.4191">
      <tspan
         style="fill:#ff0000"
         id="tspan4283-3">Litecoin</tspan>
    </text>
    <a
       id="a3001-8"
       xlink:title="&lt;TABLE&gt;"
       xlink:href="http://purl.org/net/bel-epa/ccs#Dd5bd8eaf-b432-440b-9502-3707aa57ff93"
       transform="translate(-3.5294118,-15.294118)">
      <polygon
         style="fill:#eeeeee;stroke:#eeeeee"
         id="polygon3003-6"
         points="2342,-335 1067,-335 1067,-335 1067,-349 2342,-349 "
         transform="matrix(0.41854491,0,0,1.4362167,620.30025,152.12727)" />
      <text
         style="font-size:10px;text-anchor:start;fill:#ff00ff;font-family:DejaVu Sans"
         id="text3005-9"
         font-size="10.00"
         y="-336.79791"
         x="1090.7115">
        <tspan
           style="font-size:12.80000019px;fill:#ff00ff"
           id="tspan4285-2">http://purl.org/net/bel-epa/ccs#D8c037049-fb79-41f4-bb61-3d8ac12961d9</tspan>
      </text>
    </a>
  </g>
  <g
     class="node"
     id="node1-3"
     transform="translate(-759.72909,645.75962)">
    <title
       id="title2993-7">node0</title>
    <polygon
       style="fill:none;stroke:#666666"
       id="polygon2995-8"
       points="2342.5,-369.5 2342.5,-100.5 1065.5,-100.5 1065.5,-100.5 1065.5,-369.5 "
       transform="matrix(0.41544773,0,0,0.14958565,618.93568,-329.89755)" />
    <polygon
       style="fill:#cccccc;stroke:#808080"
       id="polygon2997-50"
       points="1067,-349 1067,-349 1067,-368 2342,-368 2342,-349 "
       transform="matrix(0.41360808,0,0,1.0184718,621.97528,-8.6719873)" />
    <text
       style="font-size:14px;text-anchor:start;font-family:DejaVu Sans"
       id="text2999-7"
       font-size="14.00"
       y="-369.89221"
       x="1297.4191">
      <tspan
         style="fill:#ff0000"
         id="tspan4283-2">Namecoin</tspan>
    </text>
    <a
       id="a3001-7"
       xlink:title="&lt;TABLE&gt;"
       xlink:href="http://purl.org/net/bel-epa/ccs#Dd5bd8eaf-b432-440b-9502-3707aa57ff93"
       transform="translate(-3.5294118,-15.294118)">
      <polygon
         style="fill:#eeeeee;stroke:#eeeeee"
         id="polygon3003-7"
         points="1067,-349 2342,-349 2342,-335 1067,-335 1067,-335 "
         transform="matrix(0.41457534,0,0,1.4364749,624.53397,152.2156)" />
      <text
         style="font-size:10px;text-anchor:start;fill:#ff00ff;font-family:DejaVu Sans"
         id="text3005-2"
         font-size="10.00"
         y="-336.79791"
         x="1082.5759">
        <tspan
           style="font-size:12.80000019px;fill:#ff00ff"
           id="tspan4285-9">http://purl.org/net/bel-epa/ccs#D8896b685-79c8-4a1f-a2dd-eee72eabb8e8</tspan>
      </text>
    </a>
  </g>
  <path
     style="fill:none;stroke:#000000;stroke-width:1.2;stroke-linecap:butt;stroke-linejoin:miter;stroke-opacity:1;opacity:0.13991770000000001;stroke-miterlimit:4;stroke-dasharray:none;marker-end:url(#Arrow1Lend-13)"
     d="M 572.06897,193.58738 667.24138,142.5529"
     id="path4514"
     inkscape:connector-curvature="0"
     transform="matrix(0.80000003,0,0,0.80000003,0,-1.003897e-5)" />
  <path
     style="fill:none;stroke:#000000;stroke-width:1.2;stroke-linecap:butt;stroke-linejoin:miter;stroke-opacity:1;opacity:0.10000000000000001;marker-end:url(#Arrow1Lend-13);stroke-miterlimit:4;stroke-dasharray:none"
     d="M 716.2069,319.44945 715.51724,142.5529"
     id="path4722"
     inkscape:connector-curvature="0"
     transform="matrix(0.80000003,0,0,0.80000003,0,-1.003897e-5)" />
  <path
     style="fill:none;stroke:#000000;stroke-width:1.2;stroke-linecap:butt;stroke-linejoin:miter;stroke-opacity:1;opacity:0.10000000000000001;stroke-miterlimit:4;stroke-dasharray:none;marker-end:url(#Arrow1Lend-13)"
     d="M 839.65517,199.44945 757.58621,140.1391"
     id="path4930"
     inkscape:connector-curvature="0"
     transform="matrix(0.80000003,0,0,0.80000003,0,-1.003897e-5)" />
  <path
     style="fill:none;stroke:#000000;stroke-width:1.19999999999999996;stroke-linecap:butt;stroke-linejoin:miter;stroke-opacity:1;stroke-miterlimit:4;stroke-dasharray:none;opacity:0.10000000000000001;marker-end:url(#Arrow1Lend-13)"
     d="M 715.17241,116.00117 714.48276,47.725311"
     id="path5140"
     inkscape:connector-curvature="0"
     transform="matrix(0.80000003,0,0,0.80000003,0,-1.003897e-5)" />
</svg>
