<?xml version="1.0" encoding="UTF-8" standalone="no"?>
<!DOCTYPE svg PUBLIC "-//W3C//DTD SVG 1.1//EN"
 "http://www.w3.org/Graphics/SVG/1.1/DTD/svg11.dtd">
<!-- Generated by graphviz version 2.26.3 (20100126.1600)
 -->
<!-- Title: _anonymous_0 Pages: 1 -->
<svg width="3200pt" height="382pt"
 viewBox="0.00 0.00 3200.00 382.00" xmlns="http://www.w3.org/2000/svg" xmlns:xlink="http://www.w3.org/1999/xlink">
<g id="graph1" class="graph" transform="scale(1 1) rotate(0) translate(4 378)">
<title>_anonymous_0</title>
<polygon fill="white" stroke="white" points="-4,5 -4,-378 3197,-378 3197,5 -4,5"/>
<!-- node0 -->
<g id="node1" class="node"><title>node0</title>
<polygon fill="none" stroke="#666666" points="855.5,-100.5 855.5,-369.5 2132.5,-369.5 2132.5,-100.5 855.5,-100.5"/>
<polygon fill="grey" stroke="grey" points="857,-349 857,-368 2132,-368 2132,-349 857,-349"/>
<text text-anchor="start" x="1462.5" y="-355.233" font-family="DejaVu Sans" font-size="14.00">Dogecoin</text>
<a xlink:href="http://purl.org/net/bel-epa/ccs#Dd5bd8eaf-b432-440b-9502-3707aa57ff93" xlink:title="&lt;TABLE&gt;">
<polygon fill="#eeeeee" stroke="#eeeeee" points="857,-335 857,-349 2132,-349 2132,-335 857,-335"/>
<text text-anchor="start" x="1310.5" y="-339.667" font-family="DejaVu Sans" font-size="10.00" fill="#6666ff">http://purl.org/net/bel&#45;epa/ccs#Dd5bd8eaf&#45;b432&#45;440b&#45;9502&#45;3707aa57ff93</text>
</a>
<text text-anchor="start" x="859" y="-322.733" font-family="DejaVu Sans" font-size="14.00">doacc:block&#45;reward</text>
<text text-anchor="start" x="1046" y="-322.733" font-family="DejaVu Sans" font-size="14.00">&quot;500000&quot;^^xsd:string</text>
<text text-anchor="start" x="859" y="-304.733" font-family="DejaVu Sans" font-size="14.00">doacc:block&#45;time</text>
<text text-anchor="start" x="1046" y="-304.733" font-family="DejaVu Sans" font-size="14.00">&quot;60&quot;^^xsd:integer</text>
<text text-anchor="start" x="859" y="-286.733" font-family="DejaVu Sans" font-size="14.00">doacc:comment</text>
<text text-anchor="start" x="1046" y="-286.733" font-family="DejaVu Sans" font-size="14.00">&quot;supported&quot;^^xsd:string</text>
<text text-anchor="start" x="859" y="-268.733" font-family="DejaVu Sans" font-size="14.00">doacc:date&#45;founded</text>
<text text-anchor="start" x="1046" y="-268.733" font-family="DejaVu Sans" font-size="14.00">&quot;2013&#45;12&#45;08&quot;^^xsd:date</text>
<text text-anchor="start" x="859" y="-250.733" font-family="DejaVu Sans" font-size="14.00">doacc:expiration</text>
<text text-anchor="start" x="1046" y="-250.733" font-family="DejaVu Sans" font-size="14.00">&quot;listed&quot;@en</text>
<text text-anchor="start" x="859" y="-232.733" font-family="DejaVu Sans" font-size="14.00">doacc:image</text>
<text text-anchor="start" x="1046" y="-232.733" font-family="DejaVu Sans" font-size="14.00">&quot;dogecoin_doge.png&quot;^^xsd:anyURI</text>
<text text-anchor="start" x="859" y="-214.733" font-family="DejaVu Sans" font-size="14.00">doacc:incept</text>
<text text-anchor="start" x="1046" y="-214.733" font-family="DejaVu Sans" font-size="14.00">&quot;2013&#45;12&quot;^^xsd:string</text>
<text text-anchor="start" x="859" y="-196.733" font-family="DejaVu Sans" font-size="14.00">doacc:symbol</text>
<text text-anchor="start" x="1046" y="-196.733" font-family="DejaVu Sans" font-size="14.00">&quot;DOGE&quot;^^xsd:string</text>
<text text-anchor="start" x="859" y="-178.733" font-family="DejaVu Sans" font-size="14.00">doacc:total&#45;coins</text>
<text text-anchor="start" x="1046" y="-178.733" font-family="DejaVu Sans" font-size="14.00">&quot;100000000000&quot;^^xsd:string</text>
<text text-anchor="start" x="859" y="-160.733" font-family="DejaVu Sans" font-size="14.00">doacc:website</text>
<text text-anchor="start" x="1046" y="-160.733" font-family="DejaVu Sans" font-size="14.00">&quot;http://dogecoin.com/&quot;^^xsd:anyURI</text>
<text text-anchor="start" x="859" y="-142.733" font-family="DejaVu Sans" font-size="14.00">skos:prefLabel</text>
<text text-anchor="start" x="1046" y="-142.733" font-family="DejaVu Sans" font-size="14.00">&quot;Dogecoin&quot;@en</text>
<text text-anchor="start" x="859" y="-124.733" font-family="DejaVu Sans" font-size="14.00">dc:title</text>
<text text-anchor="start" x="1046" y="-124.733" font-family="DejaVu Sans" font-size="14.00">&quot;Dogecoin&quot;@en</text>
<text text-anchor="start" x="859" y="-106.733" font-family="DejaVu Sans" font-size="14.00">rdfs:comment</text>
<text text-anchor="start" x="1046" y="-106.733" font-family="DejaVu Sans" font-size="14.00">&quot;Scrypt&#45;based cryptocoin with re&#45;target every 4 hours, variable block reward, and 100 billion total coins.&quot;^^xsd:string</text>
</g>
<!-- node1 -->
<g id="node3" class="node"><title>node1</title>
<polygon fill="none" stroke="#666666" points="7.5,-4.5 7.5,-39.5 196.5,-39.5 196.5,-4.5 7.5,-4.5"/>
<polygon fill="grey" stroke="grey" points="9,-19 9,-38 196,-38 196,-19 9,-19"/>
<text text-anchor="start" x="72" y="-25.2333" font-family="DejaVu Sans" font-size="14.00">dogecoin</text>
<a xlink:href="https://github.com/dogecoin/dogecoin" xlink:title="&lt;TABLE&gt;">
<polygon fill="#eeeeee" stroke="#eeeeee" points="9,-5 9,-19 196,-19 196,-5 9,-5"/>
<text text-anchor="start" x="12" y="-9.66667" font-family="DejaVu Sans" font-size="10.00" fill="#6666ff">https://github.com/dogecoin/dogecoin</text>
</a>
</g>
<!-- node0&#45;&gt;node1 -->
<g id="edge2" class="edge"><title>node0&#45;&gt;node1</title>
<path fill="none" stroke="BLACK" d="M847.928,-144.795C647.61,-115.211 426.073,-80.8491 214.261,-44.1899"/>
<polygon fill="BLACK" stroke="BLACK" points="214.633,-40.7023 204.182,-42.4425 213.437,-47.5994 214.633,-40.7023"/>
<text text-anchor="start" x="387.5" y="-67.2333" font-family="Times Roman,serif" font-size="14.00"> </text>
<text text-anchor="start" x="392.5" y="-66.8333" font-family="Times Roman,serif" font-size="10.00" fill="#336633">doacc:source</text>
<text text-anchor="start" x="445.5" y="-67.2333" font-family="Times Roman,serif" font-size="14.00"> </text>
</g>
<!-- node2 -->
<g id="node5" class="node"><title>node2</title>
<polygon fill="none" stroke="#666666" points="229.5,-4.5 229.5,-39.5 606.5,-39.5 606.5,-4.5 229.5,-4.5"/>
<polygon fill="grey" stroke="grey" points="231,-19 231,-38 606,-38 606,-19 231,-19"/>
<text text-anchor="start" x="268.5" y="-25.2333" font-family="DejaVu Sans" font-size="14.00">Db8ade99f&#45;11f1&#45;476b&#45;ae77&#45;03c005c1bb66</text>
<a xlink:href="http://purl.org/net/bel-epa/ccs#Db8ade99f-11f1-476b-ae77-03c005c1bb66" xlink:title="&lt;TABLE&gt;">
<polygon fill="#eeeeee" stroke="#eeeeee" points="231,-5 231,-19 606,-19 606,-5 231,-5"/>
<text text-anchor="start" x="233.5" y="-9.66667" font-family="DejaVu Sans" font-size="10.00" fill="#6666ff">http://purl.org/net/bel&#45;epa/ccs#Db8ade99f&#45;11f1&#45;476b&#45;ae77&#45;03c005c1bb66</text>
</a>
</g>
<!-- node0&#45;&gt;node2 -->
<g id="edge4" class="edge"><title>node0&#45;&gt;node2</title>
<path fill="none" stroke="BLACK" d="M847.903,-107.102C728.484,-83.462 616.477,-61.2895 536.746,-45.5064"/>
<polygon fill="BLACK" stroke="BLACK" points="537.184,-42.0253 526.695,-43.5167 535.825,-48.892 537.184,-42.0253"/>
<text text-anchor="start" x="679.5" y="-67.2333" font-family="Times Roman,serif" font-size="14.00"> </text>
<text text-anchor="start" x="684.5" y="-66.8333" font-family="Times Roman,serif" font-size="10.00" fill="#336633">doacc:protocol</text>
<text text-anchor="start" x="744.5" y="-67.2333" font-family="Times Roman,serif" font-size="14.00"> </text>
</g>
<!-- node3 -->
<g id="node7" class="node"><title>node3</title>
<polygon fill="none" stroke="#666666" points="639.5,-4.5 639.5,-39.5 860.5,-39.5 860.5,-4.5 639.5,-4.5"/>
<polygon fill="grey" stroke="grey" points="641,-19 641,-38 860,-38 860,-19 641,-19"/>
<text text-anchor="start" x="714" y="-25.2333" font-family="DejaVu Sans" font-size="14.00">Repository</text>
<a xlink:href="http://purl.org/net/bel-epa/doacc#Repository" xlink:title="&lt;TABLE&gt;">
<polygon fill="#eeeeee" stroke="#eeeeee" points="641,-5 641,-19 860,-19 860,-5 641,-5"/>
<text text-anchor="start" x="644" y="-9.66667" font-family="DejaVu Sans" font-size="10.00" fill="#6666ff">http://purl.org/net/bel&#45;epa/doacc#Repository</text>
</a>
</g>
<!-- node0&#45;&gt;node3 -->
<g id="edge6" class="edge"><title>node0&#45;&gt;node3</title>
<path fill="none" stroke="BLACK" d="M1010.22,-96.4971C943.104,-77.2839 881.345,-59.6027 834.85,-46.2917"/>
<polygon fill="BLACK" stroke="BLACK" points="835.741,-42.9062 825.164,-43.5186 833.814,-49.6358 835.741,-42.9062"/>
<text text-anchor="start" x="930.5" y="-67.2333" font-family="Times Roman,serif" font-size="14.00"> </text>
<text text-anchor="start" x="935.5" y="-66.8333" font-family="Times Roman,serif" font-size="10.00" fill="#336633">rdf:type</text>
<text text-anchor="start" x="972.5" y="-67.2333" font-family="Times Roman,serif" font-size="14.00"> </text>
</g>
<!-- node4 -->
<g id="node9" class="node"><title>node4</title>
<polygon fill="none" stroke="#666666" points="893.5,-4.5 893.5,-39.5 1272.5,-39.5 1272.5,-4.5 893.5,-4.5"/>
<polygon fill="grey" stroke="grey" points="895,-19 895,-38 1272,-38 1272,-19 895,-19"/>
<text text-anchor="start" x="932" y="-25.2333" font-family="DejaVu Sans" font-size="14.00">D451a49d8&#45;c9e7&#45;46e5&#45;8b8d&#45;bcbe16f75c24</text>
<a xlink:href="http://purl.org/net/bel-epa/ccs#D451a49d8-c9e7-46e5-8b8d-bcbe16f75c24" xlink:title="&lt;TABLE&gt;">
<polygon fill="#eeeeee" stroke="#eeeeee" points="895,-5 895,-19 1272,-19 1272,-5 895,-5"/>
<text text-anchor="start" x="897.5" y="-9.66667" font-family="DejaVu Sans" font-size="10.00" fill="#6666ff">http://purl.org/net/bel&#45;epa/ccs#D451a49d8&#45;c9e7&#45;46e5&#45;8b8d&#45;bcbe16f75c24</text>
</a>
</g>
<!-- node0&#45;&gt;node4 -->
<g id="edge8" class="edge"><title>node0&#45;&gt;node4</title>
<path fill="none" stroke="BLACK" d="M1226.75,-96.4971C1191.38,-78.1682 1158.7,-61.2335 1133.47,-48.1571"/>
<polygon fill="BLACK" stroke="BLACK" points="1135.01,-45.0125 1124.52,-43.5186 1131.79,-51.2274 1135.01,-45.0125"/>
<text text-anchor="start" x="1183.5" y="-67.2333" font-family="Times Roman,serif" font-size="14.00"> </text>
<text text-anchor="start" x="1188.5" y="-66.8333" font-family="Times Roman,serif" font-size="10.00" fill="#336633">doacc:protection&#45;scheme</text>
<text text-anchor="start" x="1299.5" y="-67.2333" font-family="Times Roman,serif" font-size="14.00"> </text>
</g>
<!-- node5 -->
<g id="node11" class="node"><title>node5</title>
<polygon fill="none" stroke="#666666" points="1305.5,-4.5 1305.5,-39.5 1682.5,-39.5 1682.5,-4.5 1305.5,-4.5"/>
<polygon fill="grey" stroke="grey" points="1307,-19 1307,-38 1682,-38 1682,-19 1307,-19"/>
<text text-anchor="start" x="1344.5" y="-25.2333" font-family="DejaVu Sans" font-size="14.00">D5e6e149c&#45;2bf3&#45;48e0&#45;a8ab&#45;4ca0a1f424a4</text>
<a xlink:href="http://purl.org/net/bel-epa/ccs#D5e6e149c-2bf3-48e0-a8ab-4ca0a1f424a4" xlink:title="&lt;TABLE&gt;">
<polygon fill="#eeeeee" stroke="#eeeeee" points="1307,-5 1307,-19 1682,-19 1682,-5 1307,-5"/>
<text text-anchor="start" x="1309.5" y="-9.66667" font-family="DejaVu Sans" font-size="10.00" fill="#6666ff">http://purl.org/net/bel&#45;epa/ccs#D5e6e149c&#45;2bf3&#45;48e0&#45;a8ab&#45;4ca0a1f424a4</text>
</a>
</g>
<!-- node0&#45;&gt;node5 -->
<g id="edge10" class="edge"><title>node0&#45;&gt;node5</title>
<path fill="none" stroke="BLACK" d="M1494,-96.4971C1494,-80.8015 1494,-66.1283 1494,-54.0248"/>
<polygon fill="BLACK" stroke="BLACK" points="1497.5,-53.6761 1494,-43.6761 1490.5,-53.6761 1497.5,-53.6761"/>
<text text-anchor="start" x="1494.5" y="-67.2333" font-family="Times Roman,serif" font-size="14.00"> </text>
<text text-anchor="start" x="1499.5" y="-66.8333" font-family="Times Roman,serif" font-size="10.00" fill="#336633">doacc:coin</text>
<text text-anchor="start" x="1539.5" y="-67.2333" font-family="Times Roman,serif" font-size="14.00"> </text>
</g>
<!-- node6 -->
<g id="node13" class="node"><title>node6</title>
<polygon fill="none" stroke="#666666" points="1715.5,-4.5 1715.5,-39.5 2094.5,-39.5 2094.5,-4.5 1715.5,-4.5"/>
<polygon fill="grey" stroke="grey" points="1717,-19 1717,-38 2094,-38 2094,-19 1717,-19"/>
<text text-anchor="start" x="1755.5" y="-25.2333" font-family="DejaVu Sans" font-size="14.00">Dc8edb69c&#45;7e3f&#45;48c9&#45;8d92&#45;aae6ed78e3a8</text>
<a xlink:href="http://purl.org/net/bel-epa/ccs#Dc8edb69c-7e3f-48c9-8d92-aae6ed78e3a8" xlink:title="&lt;TABLE&gt;">
<polygon fill="#eeeeee" stroke="#eeeeee" points="1717,-5 1717,-19 2094,-19 2094,-5 1717,-5"/>
<text text-anchor="start" x="1719.5" y="-9.66667" font-family="DejaVu Sans" font-size="10.00" fill="#6666ff">http://purl.org/net/bel&#45;epa/ccs#Dc8edb69c&#45;7e3f&#45;48c9&#45;8d92&#45;aae6ed78e3a8</text>
</a>
</g>
<!-- node0&#45;&gt;node6 -->
<g id="edge12" class="edge"><title>node0&#45;&gt;node6</title>
<path fill="none" stroke="BLACK" d="M1761.25,-96.4971C1796.62,-78.1682 1829.3,-61.2335 1854.53,-48.1571"/>
<polygon fill="BLACK" stroke="BLACK" points="1856.21,-51.2274 1863.48,-43.5186 1852.99,-45.0125 1856.21,-51.2274"/>
<text text-anchor="start" x="1827.5" y="-67.2333" font-family="Times Roman,serif" font-size="14.00"> </text>
<text text-anchor="start" x="1832.5" y="-66.8333" font-family="Times Roman,serif" font-size="10.00" fill="#336633">doacc:repository</text>
<text text-anchor="start" x="1901.5" y="-67.2333" font-family="Times Roman,serif" font-size="14.00"> </text>
</g>
<!-- node7 -->
<g id="node15" class="node"><title>node7</title>
<polygon fill="none" stroke="#666666" points="2127.5,-4.5 2127.5,-39.5 2370.5,-39.5 2370.5,-4.5 2127.5,-4.5"/>
<polygon fill="grey" stroke="grey" points="2129,-19 2129,-38 2370,-38 2370,-19 2129,-19"/>
<text text-anchor="start" x="2196.5" y="-25.2333" font-family="DejaVu Sans" font-size="14.00">Cryptocurrency</text>
<a xlink:href="http://purl.org/net/bel-epa/doacc#Cryptocurrency" xlink:title="&lt;TABLE&gt;">
<polygon fill="#eeeeee" stroke="#eeeeee" points="2129,-5 2129,-19 2370,-19 2370,-5 2129,-5"/>
<text text-anchor="start" x="2132" y="-9.66667" font-family="DejaVu Sans" font-size="10.00" fill="#6666ff">http://purl.org/net/bel&#45;epa/doacc#Cryptocurrency</text>
</a>
</g>
<!-- node0&#45;&gt;node7 -->
<g id="edge14" class="edge"><title>node0&#45;&gt;node7</title>
<path fill="none" stroke="BLACK" d="M1984.94,-96.4971C2053.04,-77.2839 2115.71,-59.6027 2162.9,-46.2917"/>
<polygon fill="BLACK" stroke="BLACK" points="2164.05,-49.6024 2172.73,-43.5186 2162.15,-42.8654 2164.05,-49.6024"/>
<text text-anchor="start" x="2105.5" y="-67.2333" font-family="Times Roman,serif" font-size="14.00"> </text>
<text text-anchor="start" x="2110.5" y="-66.8333" font-family="Times Roman,serif" font-size="10.00" fill="#336633">rdf:type</text>
<text text-anchor="start" x="2147.5" y="-67.2333" font-family="Times Roman,serif" font-size="14.00"> </text>
</g>
<!-- node8 -->
<g id="node17" class="node"><title>node8</title>
<polygon fill="none" stroke="#666666" points="2403.5,-4.5 2403.5,-39.5 2776.5,-39.5 2776.5,-4.5 2403.5,-4.5"/>
<polygon fill="grey" stroke="grey" points="2405,-19 2405,-38 2776,-38 2776,-19 2405,-19"/>
<text text-anchor="start" x="2442" y="-25.2333" font-family="DejaVu Sans" font-size="14.00">Df62d8756&#45;3b80&#45;43f5&#45;af10&#45;d3003fb16c59</text>
<a xlink:href="http://purl.org/net/bel-epa/ccs#Df62d8756-3b80-43f5-af10-d3003fb16c59" xlink:title="&lt;TABLE&gt;">
<polygon fill="#eeeeee" stroke="#eeeeee" points="2405,-5 2405,-19 2776,-19 2776,-5 2405,-5"/>
<text text-anchor="start" x="2408" y="-9.66667" font-family="DejaVu Sans" font-size="10.00" fill="#6666ff">http://purl.org/net/bel&#45;epa/ccs#Df62d8756&#45;3b80&#45;43f5&#45;af10&#45;d3003fb16c59</text>
</a>
</g>
<!-- node0&#45;&gt;node8 -->
<g id="edge16" class="edge"><title>node0&#45;&gt;node8</title>
<path fill="none" stroke="BLACK" d="M2140.26,-109.404C2266.24,-84.9199 2385.06,-61.8283 2468.9,-45.5354"/>
<polygon fill="BLACK" stroke="BLACK" points="2469.8,-48.9261 2478.95,-43.5825 2468.46,-42.0546 2469.8,-48.9261"/>
<text text-anchor="start" x="2380.5" y="-67.2333" font-family="Times Roman,serif" font-size="14.00"> </text>
<text text-anchor="start" x="2385.5" y="-66.8333" font-family="Times Roman,serif" font-size="10.00" fill="#336633">doacc:release</text>
<text text-anchor="start" x="2441.5" y="-67.2333" font-family="Times Roman,serif" font-size="14.00"> </text>
</g>
<!-- node9 -->
<g id="node19" class="node"><title>node9</title>
<polygon fill="none" stroke="#666666" points="2809.5,-4.5 2809.5,-39.5 3184.5,-39.5 3184.5,-4.5 2809.5,-4.5"/>
<polygon fill="grey" stroke="grey" points="2811,-19 2811,-38 3184,-38 3184,-19 2811,-19"/>
<text text-anchor="start" x="2847.5" y="-25.2333" font-family="DejaVu Sans" font-size="14.00">D338257f8&#45;402f&#45;4c76&#45;969b&#45;6fc041d52e40</text>
<a xlink:href="http://purl.org/net/bel-epa/ccs#D338257f8-402f-4c76-969b-6fc041d52e40" xlink:title="&lt;TABLE&gt;">
<polygon fill="#eeeeee" stroke="#eeeeee" points="2811,-5 2811,-19 3184,-19 3184,-5 2811,-5"/>
<text text-anchor="start" x="2814" y="-9.66667" font-family="DejaVu Sans" font-size="10.00" fill="#6666ff">http://purl.org/net/bel&#45;epa/ccs#D338257f8&#45;402f&#45;4c76&#45;969b&#45;6fc041d52e40</text>
</a>
</g>
<!-- node0&#45;&gt;node9 -->
<g id="edge18" class="edge"><title>node0&#45;&gt;node9</title>
<path fill="none" stroke="BLACK" d="M2140.13,-143.433C2395.68,-107.217 2667.81,-68.6516 2835.15,-44.9363"/>
<polygon fill="BLACK" stroke="BLACK" points="2835.87,-48.3703 2845.28,-43.5017 2834.88,-41.4395 2835.87,-48.3703"/>
<text text-anchor="start" x="2709.5" y="-67.2333" font-family="Times Roman,serif" font-size="14.00"> </text>
<text text-anchor="start" x="2714.5" y="-66.8333" font-family="Times Roman,serif" font-size="10.00" fill="#336633">doacc:pow</text>
<text text-anchor="start" x="2754.5" y="-67.2333" font-family="Times Roman,serif" font-size="14.00"> </text>
</g>
</g>
</svg>
